<?xml version="1.0" encoding="utf-8"?>
<!-- Generator: Adobe Illustrator 15.0.0, SVG Export Plug-In . SVG Version: 6.00 Build 0)  -->
<!DOCTYPE svg PUBLIC "-//W3C//DTD SVG 1.1//EN" "http://www.w3.org/Graphics/SVG/1.1/DTD/svg11.dtd">
<svg version="1.1" id="Layer_1" xmlns="http://www.w3.org/2000/svg" xmlns:xlink="http://www.w3.org/1999/xlink" x="0px" y="0px"
	 width="20px" height="20px" viewBox="0 0 20 20" enable-background="new 0 0 20 20" xml:space="preserve">
<g>
	<rect x="15.166" y="8.337" fill="#8DC63F" width="4.052" height="0.983"/>
	
		<rect x="14.203" y="11.933" transform="matrix(-0.866 -0.5 0.5 -0.866 24.0698 31.2995)" fill="#8DC63F" width="4.051" height="0.984"/>
	
		<rect x="11.571" y="14.565" transform="matrix(-0.4998 -0.8661 0.8661 -0.4998 7.351 34.3592)" fill="#8DC63F" width="4.05" height="0.985"/>
	<polyline fill="#8DC63F" points="9.509,18.049 9.509,13.995 10.492,13.995 10.492,18.049 9.509,18.049 	"/>
	
		<rect x="5.911" y="13.032" transform="matrix(-0.8663 -0.4995 0.4995 -0.8663 4.43 31.2998)" fill="#8DC63F" width="0.984" height="4.05"/>
	
		<rect x="1.745" y="11.932" transform="matrix(0.8659 -0.5002 0.5002 0.8659 -5.7083 3.5516)" fill="#8DC63F" width="4.051" height="0.984"/>
	<rect x="0.782" y="8.337" fill="#8DC63F" width="4.05" height="0.983"/>
	<path fill="#8DC63F" d="M6.079,8.837c0-1.392,0.706-2.653,1.824-3.313C8.079,5.42,8.127,5.257,8.127,5.072c0-0.471,0-2.546,0-2.546
		C8.722,2.35,9.351,2.257,10,2.257c0.652,0,1.281,0.093,1.873,0.269c0,0,0,2.184,0,2.546c0,0.186,0.049,0.349,0.225,0.453
		c1.121,0.659,1.824,1.921,1.824,3.313c0,2.163-1.76,3.922-3.922,3.922C7.837,12.759,6.079,11,6.079,8.837 M9.107,4.055
		c0,0,0,0.848,0,1.017c0,0.768-0.442,1.146-0.706,1.3c-0.825,0.487-1.34,1.431-1.34,2.465c0,1.62,1.319,2.937,2.938,2.937
		s2.939-1.316,2.939-2.937c0-1.034-0.513-1.978-1.338-2.465c-0.268-0.154-0.712-0.533-0.712-1.3c0-0.288,0-1.017,0-1.017
		C10.601,4,10.306,3.969,10,3.969C9.695,3.969,9.397,4,9.107,4.055"/>
</g>
</svg>
