<?xml version="1.0" encoding="utf-8"?>
<!-- Generator: Adobe Illustrator 15.0.0, SVG Export Plug-In . SVG Version: 6.00 Build 0)  -->
<!DOCTYPE svg PUBLIC "-//W3C//DTD SVG 1.1//EN" "http://www.w3.org/Graphics/SVG/1.1/DTD/svg11.dtd">
<svg version="1.1" id="Layer_1" xmlns="http://www.w3.org/2000/svg" xmlns:xlink="http://www.w3.org/1999/xlink" x="0px" y="0px"
	 width="20px" height="20px" viewBox="0 0 20 20" enable-background="new 0 0 20 20" xml:space="preserve">
<g>
	<rect x="9.057" y="7.552" fill="#8CC541" width="1.888" height="7.844"/>
	<circle fill="#8CC541" cx="10" cy="5.98" r="0.944"/>
	<path fill="#8CC541" d="M10,1.082c-5.043,0-9.135,4.086-9.135,9.13c0,5.048,4.092,9.14,9.135,9.14c5.045,0,9.134-4.092,9.134-9.14
		C19.135,5.167,15.046,1.082,10,1.082z M10.003,17.285c-3.907,0-7.075-3.164-7.075-7.074c0-3.902,3.169-7.064,7.075-7.064
		c3.903,0,7.069,3.162,7.069,7.064C17.072,14.121,13.906,17.285,10.003,17.285z"/>
</g>
</svg>
