<?xml version="1.0" encoding="utf-8"?>
<!-- Generator: Adobe Illustrator 15.0.0, SVG Export Plug-In . SVG Version: 6.00 Build 0)  -->
<!DOCTYPE svg PUBLIC "-//W3C//DTD SVG 1.1//EN" "http://www.w3.org/Graphics/SVG/1.1/DTD/svg11.dtd">
<svg version="1.1" id="Layer_1" xmlns="http://www.w3.org/2000/svg" xmlns:xlink="http://www.w3.org/1999/xlink" x="0px" y="0px"
	 width="20px" height="20px" viewBox="0 0 20 20" enable-background="new 0 0 20 20" xml:space="preserve">
<g>
	<rect x="15.445" y="8.085" fill="#8CC541" width="4.271" height="1.037"/>
	
		<rect x="14.431" y="11.877" transform="matrix(-0.8661 -0.4998 0.4998 -0.8661 24.7194 31.4119)" fill="#8CC541" width="4.271" height="1.038"/>
	
		<rect x="11.655" y="14.651" transform="matrix(-0.5002 -0.8659 0.8659 -0.5002 7.5528 34.6995)" fill="#8CC541" width="4.272" height="1.038"/>
	<polyline fill="#8CC541" points="9.482,18.324 9.482,14.051 10.518,14.051 10.518,18.324 9.482,18.324 	"/>
	
		<rect x="5.69" y="13.035" transform="matrix(-0.8656 -0.5008 0.5008 -0.8656 3.9853 31.4097)" fill="#8CC541" width="1.037" height="4.271"/>
	
		<rect x="1.298" y="11.876" transform="matrix(0.8659 -0.5002 0.5002 0.8659 -5.7393 3.3792)" fill="#8CC541" width="4.271" height="1.037"/>
	<rect x="0.283" y="8.085" fill="#8CC541" width="4.27" height="1.037"/>
	<path fill="#8CC541" d="M5.867,8.613c0-1.467,0.744-2.797,1.922-3.492c0.186-0.11,0.237-0.282,0.237-0.478c0-0.497,0-2.684,0-2.684
		C8.653,1.774,9.316,1.676,10,1.676c0.688,0,1.349,0.098,1.974,0.284c0,0,0,2.302,0,2.684c0,0.196,0.051,0.368,0.236,0.478
		c1.182,0.695,1.924,2.025,1.924,3.492c0,2.28-1.855,4.135-4.134,4.135C7.721,12.748,5.867,10.893,5.867,8.613 M9.059,3.571
		c0,0,0,0.894,0,1.072c0,0.81-0.466,1.208-0.744,1.372C7.446,6.528,6.903,7.522,6.903,8.613c0,1.708,1.39,3.096,3.098,3.096
		c1.707,0,3.097-1.388,3.097-3.096c0-1.091-0.539-2.085-1.408-2.598c-0.283-0.164-0.75-0.562-0.75-1.372c0-0.303,0-1.072,0-1.072
		c-0.306-0.058-0.616-0.09-0.938-0.09C9.679,3.481,9.365,3.514,9.059,3.571"/>
</g>
</svg>
