<?xml version="1.0" encoding="utf-8"?>
<!-- Generator: Adobe Illustrator 15.0.0, SVG Export Plug-In . SVG Version: 6.00 Build 0)  -->
<!DOCTYPE svg PUBLIC "-//W3C//DTD SVG 1.1//EN" "http://www.w3.org/Graphics/SVG/1.1/DTD/svg11.dtd">
<svg version="1.1" id="Layer_1" xmlns="http://www.w3.org/2000/svg" xmlns:xlink="http://www.w3.org/1999/xlink" x="0px" y="0px"
	 width="20px" height="20px" viewBox="0 0 20 20" enable-background="new 0 0 20 20" xml:space="preserve">
<g>
	<rect x="9.134" y="7.284" fill="#8DC63F" width="1.733" height="7.199"/>
	<circle fill="#8DC63F" cx="10" cy="5.841" r="0.866"/>
	<path fill="#8DC63F" d="M10,1.344c-4.629,0-8.385,3.751-8.385,8.381c0,4.634,3.756,8.388,8.385,8.388
		c4.63,0,8.384-3.754,8.384-8.388C18.385,5.095,14.631,1.344,10,1.344z M10.002,16.217c-3.586,0-6.494-2.902-6.494-6.492
		c0-3.582,2.909-6.484,6.494-6.484c3.583,0,6.489,2.902,6.489,6.484C16.491,13.314,13.586,16.217,10.002,16.217z"/>
</g>
</svg>
